HIERARCHY
ROOT Hips
{
 OFFSET 0.000000 0.000000 0.000000
 CHANNELS 6 Xposition Yposition Zposition Yrotation Xrotation Zrotation
 JOINT Chest
 {
  OFFSET 0.000000 9.588913 -0.003946
  CHANNELS 3 Yrotation Xrotation Zrotation
  JOINT Chest2
  {
   OFFSET 0.000000 9.541882 0.008053
   CHANNELS 3 Yrotation Xrotation Zrotation
   JOINT Chest3
   {
    OFFSET 0.000000 9.501360 0.000000
    CHANNELS 3 Yrotation Xrotation Zrotation
    JOINT Chest4
    {
     OFFSET 0.000000 9.491660 0.000000
     CHANNELS 3 Yrotation Xrotation Zrotation
     JOINT Neck
     {
      OFFSET 0.000000 14.331917 0.000000
      CHANNELS 3 Yrotation Xrotation Zrotation
      JOINT Head
      {
       OFFSET 0.000000 8.884799 0.017034
       CHANNELS 3 Yrotation Xrotation Zrotation
       End Site
       {
        OFFSET 0.000000 16.896195 0.008993
       }
      }
     }
     JOINT RightCollar
     {
      OFFSET -2.923010 9.499495 0.000000
      CHANNELS 3 Yrotation Xrotation Zrotation
      JOINT RightShoulder
      {
       OFFSET -13.795216 0.000000 0.000000
       CHANNELS 3 Yrotation Xrotation Zrotation
       JOINT RightElbow
       {
        OFFSET -30.272209 0.000000 0.000000
        CHANNELS 3 Yrotation Xrotation Zrotation
        JOINT RightWrist
        {
         OFFSET -24.478199 0.000000 0.000000
         CHANNELS 3 Yrotation Xrotation Zrotation
         End Site
         {
          OFFSET -18.090752 0.000000 0.000000
         }
        }
       }
      }
     }
     JOINT LeftCollar
     {
      OFFSET 2.923010 9.499495 0.000000
      CHANNELS 3 Yrotation Xrotation Zrotation
      JOINT LeftShoulder
      {
       OFFSET 13.795216 0.000000 0.000000
       CHANNELS 3 Yrotation Xrotation Zrotation
       JOINT LeftElbow
       {
        OFFSET 30.272209 0.000000 0.000000
        CHANNELS 3 Yrotation Xrotation Zrotation
        JOINT LeftWrist
        {
         OFFSET 24.478199 0.000000 0.000000
         CHANNELS 3 Yrotation Xrotation Zrotation
         End Site
         {
          OFFSET 18.090752 0.000000 0.000000
         }
        }
       }
      }
     }
    }
   }
  }
 }
 JOINT RightHip
 {
  OFFSET -7.826875 0.019532 0.001973
  CHANNELS 3 Yrotation Xrotation Zrotation
  JOINT RightKnee
  {
   OFFSET 0.000000 -40.546152 -0.001885
   CHANNELS 3 Yrotation Xrotation Zrotation
   JOINT RightAnkle
   {
    OFFSET 0.000000 -39.417092 -0.003189
    CHANNELS 3 Yrotation Xrotation Zrotation
    JOINT RightToe
    {
     OFFSET 0.000000 -7.579396 17.243563
     CHANNELS 3 Yrotation Xrotation Zrotation
     End Site
     {
      OFFSET 0.000000 -1.500329 6.694466
     }
    }
   }
  }
 }
 JOINT LeftHip
 {
  OFFSET 7.826875 0.019532 0.001973
  CHANNELS 3 Yrotation Xrotation Zrotation
  JOINT LeftKnee
  {
   OFFSET 0.000000 -40.546152 -0.001885
   CHANNELS 3 Yrotation Xrotation Zrotation
   JOINT LeftAnkle
   {
    OFFSET 0.000000 -39.417092 -0.003189
    CHANNELS 3 Yrotation Xrotation Zrotation
    JOINT LeftToe
    {
     OFFSET 0.000000 -7.579396 17.243563
     CHANNELS 3 Yrotation Xrotation Zrotation
     End Site
     {
      OFFSET 0.000000 -1.500329 6.694466
     }
    }
   }
  }
 }
}
MOTION
Frames: 7
Frame Time: 0.008333
-41.185585 88.422072 -134.922245 175.922719 -11.371191 -3.523904 -4.550865 6.095602 0.614012 -2.593579 3.523197 0.301316 -3.240604 4.405845 0.351813 -2.593577 3.523201 0.301320 -28.298553 22.685287 4.342037 -37.215549 3.710001 11.983823 -3.734213 5.370154 -5.458643 -7.597816 -0.098011 87.966656 9.605753 12.357633 4.155071 0.314770 -5.994283 -1.236261 -7.336940 -1.392952 -5.090872 6.233465 -20.450524 -76.863830 -25.707600 -3.748024 -20.707942 -3.468560 -2.957550 12.378320 -7.018835 -11.901317 -3.856192 6.066739 18.330477 1.725604 8.519213 -16.355211 11.756425 0.062060 -2.098733 0.254915 7.255818 12.216978 1.197674 -8.205611 19.247079 -0.008243 -18.002644 -15.459750 2.697283 0.036702 -0.095025 0.289540
-41.179792 88.502607 -134.669630 175.775975 -11.426475 -3.741361 -4.578652 6.126079 0.591244 -2.611644 3.537243 0.295521 -3.263254 4.423371 0.344292 -2.611643 3.537247 0.295525 -28.330252 22.608459 4.372158 -37.278700 3.623862 12.037063 -3.793906 5.397135 -5.555108 -7.609840 0.108394 88.044588 9.574478 12.449041 4.178533 0.272292 -5.982695 -1.163014 -7.276540 -1.416328 -5.077657 6.295032 -20.287042 -76.728298 -25.591195 -3.636893 -20.550804 -3.377831 -2.908787 12.308513 -6.856427 -11.907467 -3.867208 5.908840 19.432961 1.790198 8.285232 -16.465447 11.686641 0.071488 -2.272734 0.264166 7.576413 12.159197 1.490451 -8.178349 19.053135 0.050061 -18.054770 -15.299734 2.509736 0.028786 -0.079370 0.276523
-41.175817 88.578676 -134.420389 175.617715 -11.464232 -3.948775 -4.600848 6.152164 0.559005 -2.628158 3.546550 0.291407 -3.283947 4.434983 0.338920 -2.628157 3.546553 0.291410 -28.359684 22.537650 4.400563 -37.337579 3.544727 12.087076 -3.850118 5.417287 -5.647400 -7.614813 0.321510 88.099591 9.573003 12.551717 4.220133 0.243575 -5.964279 -1.098172 -7.213158 -1.437481 -5.066324 6.355360 -20.121979 -76.591295 -25.473796 -3.536272 -20.398967 -3.273893 -2.847049 12.228109 -6.650893 -11.927073 -3.901415 5.771957 20.538893 1.879058 8.044278 -16.567414 11.631528 0.079833 -2.433244 0.262737 7.911296 12.083752 1.770921 -8.154583 18.869667 0.111068 -18.106380 -15.185597 2.327296 0.023442 -0.030235 0.264690
-41.171759 88.650348 -134.174234 175.451140 -11.475509 -4.164296 -4.621869 6.165823 0.538866 -2.642793 3.550869 0.287368 -3.302290 4.440362 0.333695 -2.642793 3.550872 0.287370 -28.385838 22.474099 4.428561 -37.391001 3.474200 12.135161 -3.902018 5.429405 -5.737189 -7.614445 0.539055 88.136243 9.590788 12.664805 4.273229 0.226322 -5.945490 -1.040661 -7.150106 -1.454663 -5.056290 6.424494 -19.952208 -76.453865 -25.365085 -3.435216 -20.258134 -3.165944 -2.781129 12.143750 -6.443950 -11.966254 -3.937071 5.660894 21.643775 1.985440 7.827531 -16.663546 11.597880 0.088078 -2.579810 0.248162 8.263899 11.996066 2.064976 -8.138777 18.651532 0.165698 -18.160681 -15.039095 2.143789 0.019033 0.000595 0.254683
-41.170982 88.717939 -133.933558 175.270843 -11.468066 -4.369524 -4.641246 6.172308 0.515266 -2.656495 3.550524 0.281835 -3.319480 4.439898 0.326646 -2.656496 3.550527 0.281836 -28.405078 22.416917 4.458233 -37.434046 3.410315 12.183176 -3.947262 5.434685 -5.820298 -7.612364 0.753478 88.156470 9.617057 12.789358 4.330136 0.216207 -5.929333 -0.990671 -7.082592 -1.467886 -5.045052 6.507184 -19.777654 -76.320151 -25.271586 -3.325019 -20.126599 -3.059150 -2.713857 12.058542 -6.258646 -12.017514 -3.988715 5.575361 22.743250 2.102788 7.642501 -16.758671 11.586845 0.096841 -2.707543 0.222625 8.639439 11.899519 2.359846 -8.133842 18.413287 0.210133 -18.242481 -14.891365 1.967257 0.014535 0.037310 0.246716
-41.169520 88.781248 -133.693885 175.044521 -11.417355 -4.586237 -4.629824 6.146510 0.516953 -2.668763 3.546882 0.274371 -3.334895 4.435299 0.317218 -2.668765 3.546885 0.274372 -28.414538 22.365044 4.493148 -37.463530 3.351468 12.235090 -3.991949 5.431127 -5.888340 -7.615033 0.956587 88.162551 9.644289 12.933559 4.382926 0.205896 -5.917988 -0.948059 -7.008978 -1.479992 -5.029123 6.601502 -19.595599 -76.193416 -25.199602 -3.204136 -19.995490 -2.955257 -2.648618 11.974329 -6.094392 -12.097617 -4.006479 5.517011 23.804597 2.225157 7.462149 -16.826082 11.577446 0.140083 -2.814188 0.206918 9.070686 11.763358 2.678397 -8.136924 18.159111 0.244920 -18.334236 -14.753692 1.793258 0.010037 0.084459 0.240946
-41.175034 88.841989 -133.465720 174.821966 -11.379565 -4.774278 -4.639367 6.141749 0.488958 -2.677155 3.541415 0.264026 -3.345490 4.428394 0.304239 -2.677158 3.541418 0.264026 -28.416336 22.319229 4.535860 -37.483615 3.299934 12.294610 -4.038666 5.417048 -5.934871 -7.629789 1.148961 88.155589 9.673343 13.088038 4.428404 0.192343 -5.911787 -0.911311 -6.939878 -1.494800 -5.004831 6.704651 -19.400088 -76.071615 -25.147178 -3.077644 -19.858385 -2.861164 -2.585393 11.893977 -5.996791 -12.148845 -4.078849 5.504413 24.855095 2.357706 7.356003 -16.922236 11.592308 0.153055 -2.900469 0.180509 9.501178 11.660435 2.967347 -8.139598 17.881907 0.275176 -18.419187 -14.608318 1.620723 0.009287 0.126420 0.239008
